<svg width="480" height="480" viewBox="0 0 480 480" fill="none" xmlns="http://www.w3.org/2000/svg">
<path d="M132.417 353.979C141.158 345.307 145.8 334.117 146.429 322.756L146.472 322.799C149.054 277.288 166.774 247.829 233.689 251.573L233.602 251.487C252.928 252.585 272.644 245.892 287.415 231.217C314.896 203.932 314.896 159.733 287.415 132.448C259.934 105.184 215.36 105.184 187.857 132.448C173.086 147.102 166.319 166.64 167.425 185.835L167.338 185.749C171.134 252.176 141.462 269.756 95.5656 272.317L95.609 272.36C84.1566 272.984 72.8777 277.589 64.1366 286.261C45.2878 304.96 45.2878 335.279 64.1366 353.979C83.007 372.678 113.568 372.678 132.417 353.979Z" fill="#215FF6" style="fill:#215FF6;fill:color(display-p3 0.1294 0.3725 0.9647);fill-opacity:1;"/>
<path d="M429.52 367.542C429.52 300.967 375.133 246.99 308.026 246.99V307.266V367.542H429.52Z" fill="#215FF6" style="fill:#215FF6;fill:color(display-p3 0.1294 0.3725 0.9647);fill-opacity:1;"/>
</svg>
